<svg width="30" height="30" viewBox="0 0 30 30" fill="none" xmlns="http://www.w3.org/2000/svg">
<rect width="30" height="30" rx="8" fill="url(#paint0_linear_11690_3032)"/>
<g clip-path="url(#clip0_11690_3032)">
<path d="M10.5603 12.3039L10.4326 12.0995C10.223 11.7641 10.3252 11.3223 10.6606 11.1128C10.9961 10.9031 11.4379 11.0053 11.6473 11.3407L11.759 11.5195C11.7566 11.5207 11.7544 11.5224 11.7521 11.5237C12.4249 11.1746 13.1585 10.9315 13.9293 10.814C13.6466 9.6745 13.1735 8.45405 12.5523 7.27823C10.784 3.93106 7.28435 2.85217 7.13625 2.80786C6.93898 2.74885 6.72599 2.77769 6.55145 2.88668C6.37695 2.99578 6.25778 3.17472 6.22441 3.37782C6.19557 3.55332 5.53819 7.71341 7.27905 11.0085C7.85746 12.1033 8.50671 13.0559 9.1734 13.8126C9.56322 13.2393 10.0339 12.7306 10.5667 12.2995C10.5646 12.301 10.5623 12.3023 10.5603 12.3039Z" fill="white"/>
<path d="M23.7752 3.37782C23.7419 3.17472 23.6227 2.99578 23.4482 2.88668C23.2737 2.77759 23.0608 2.7489 22.8634 2.80786C22.7153 2.85217 19.2157 3.93106 17.4473 7.27823C16.8261 8.45405 16.353 9.67451 16.0703 10.814C16.8411 10.9315 17.5746 11.1746 18.2473 11.5235C18.2451 11.5222 18.2431 11.5206 18.2407 11.5194L18.3523 11.3408C18.5618 11.0053 19.0036 10.9032 19.339 11.1128C19.6745 11.3224 19.7766 11.7642 19.567 12.0996L19.4395 12.3037C19.4374 12.302 19.435 12.3007 19.4328 12.299C19.9659 12.7302 20.4367 13.239 20.8266 13.8123C21.4931 13.0557 22.1423 12.1032 22.7206 11.0086C24.4614 7.71336 23.804 3.55327 23.7752 3.37782Z" fill="white"/>
<path d="M21.1053 19.2674L20.4516 16.4336C20.4506 16.4295 20.4496 16.4254 20.4486 16.4212C19.8233 13.9153 17.5829 12.1652 15.0001 12.1652C12.4174 12.1652 10.1769 13.9153 9.55162 16.4212C9.55062 16.4254 9.54962 16.4295 9.54862 16.4336L8.89487 19.2674C7.75247 20.0025 7.05566 21.2655 7.05566 22.6389C7.05566 24.8501 8.85457 26.6489 11.0657 26.6489C11.567 26.6489 12.0643 26.5542 12.5286 26.3724C13.1761 26.9176 13.9989 27.2223 14.8559 27.2223C15.7636 27.2223 16.6187 26.8886 17.2779 26.2909C17.7957 26.5263 18.3588 26.6489 18.9346 26.6489C21.1457 26.6489 22.9446 24.85 22.9446 22.6389C22.9446 21.2655 22.2477 20.0025 21.1053 19.2674ZM13.3153 19.3561C13.2489 19.6866 12.9504 19.9323 12.613 19.9323C12.3129 19.9323 12.0409 19.7387 11.9391 19.4575C11.8373 19.1765 11.9279 18.8516 12.1589 18.6624C12.3911 18.4722 12.7234 18.4502 12.9809 18.6022C13.2377 18.7539 13.3738 19.0644 13.3153 19.3561ZM15.4856 22.9145H14.5147C14.1192 22.9145 13.7985 22.5938 13.7985 22.1983C13.7985 21.8028 14.1192 21.4822 14.5147 21.4822H15.4856C15.8811 21.4822 16.2017 21.8028 16.2017 22.1983C16.2017 22.5938 15.8811 22.9145 15.4856 22.9145ZM18.0891 19.3561C18.0235 19.6868 17.7245 19.9323 17.3873 19.9323C17.0873 19.9323 16.8153 19.7387 16.7134 19.4575C16.6117 19.1769 16.7021 18.8512 16.9332 18.6624C17.1658 18.4724 17.4975 18.45 17.7552 18.6022C18.0127 18.7543 18.147 19.064 18.0891 19.3561Z" fill="white"/>
</g>
<defs>
<linearGradient id="paint0_linear_11690_3032" x1="7.08333" y1="-1.66667" x2="18.75" y2="35" gradientUnits="userSpaceOnUse">
<stop stop-color="#D8E3FF"/>
<stop offset="1" stop-color="#62769D"/>
</linearGradient>
<clipPath id="clip0_11690_3032">
<rect width="24.4444" height="24.4444" fill="white" transform="translate(2.77734 2.77783)"/>
</clipPath>
</defs>
</svg>
