<svg width="31" height="30" viewBox="0 0 31 30" fill="none" xmlns="http://www.w3.org/2000/svg">
<mask id="mask0_2_1180" style="mask-type:luminance" maskUnits="userSpaceOnUse" x="0" y="0" width="31" height="30">
<path d="M30.25 0H0.25V30H30.25V0Z" fill="white"/>
</mask>
<g mask="url(#mask0_2_1180)">
<path fill-rule="evenodd" clip-rule="evenodd" d="M5.11819 25.268C1.56436 21.0872 -0.187264 18.1877 0.343267 12.9555C1.0091 6.38898 7.04418 0.907025 14.3675 0.721436H14.722C19.0219 0.830406 22.1073 2.1748 25.4293 5.11575C22.9553 2.92569 19.7136 1.58699 16.1483 1.49664H15.7939C8.47051 1.68222 2.51117 7.13526 1.77113 14.4147C1.32686 18.7961 2.81233 22.5546 5.11819 25.268Z" fill="url(#paint0_linear_2_1180)"/>
<path d="M30.1714 14.4148C29.4313 7.1353 23.4718 1.68229 16.1483 1.4967H15.7939C8.47049 1.68229 2.51116 7.13533 1.77112 14.4148C1.02457 21.7772 5.72725 27.3808 10.615 29.2214C10.4752 29.014 10.3777 28.8623 10.2726 28.7171C7.56383 25.0118 9.12299 19.5818 13.3769 17.9213C13.9923 17.6812 14.5991 17.5937 15.0725 17.7892C15.5992 18.0076 15.9719 18.5206 15.9719 18.5206C16.2059 18.205 16.5148 17.9536 16.8701 17.7892C17.3437 17.596 17.9536 17.68 18.5659 17.9213C22.8197 19.5818 24.3746 25.0174 21.6701 28.7171C21.5618 28.8623 21.4685 29.014 21.3277 29.2214C26.2154 27.3808 30.92 21.7772 30.1714 14.4148Z" fill="url(#paint1_radial_2_1180)"/>
<path fill-rule="evenodd" clip-rule="evenodd" d="M16.1287 18.3308C16.0733 18.3911 16.021 18.4544 15.9719 18.5206C15.9719 18.5206 15.9146 18.4418 15.8132 18.3328C15.656 18.1636 15.3928 17.9219 15.0725 17.7892C14.5991 17.5937 13.9923 17.6812 13.3769 17.9213C9.12299 19.5818 7.56383 25.0118 10.2726 28.7171C10.3087 28.7669 10.3439 28.8176 10.3802 28.871C10.4178 28.9262 10.4566 28.9846 10.4989 29.0479C10.5346 29.1016 10.5729 29.159 10.615 29.2214C10.4837 29.1721 10.3526 29.1199 10.2217 29.0651C5.47861 27.0787 1.04462 21.5795 1.77112 14.4148C2.51116 7.13533 8.47049 1.68229 15.7939 1.4967H16.1483C23.4718 1.68229 29.4313 7.1353 30.1714 14.4148C30.9001 21.5801 26.4634 27.0796 21.7198 29.0656C21.5893 29.1202 21.4585 29.1722 21.3277 29.2214C21.3784 29.1469 21.4228 29.0797 21.464 29.0171C21.4979 28.9658 21.5296 28.9177 21.5608 28.8718C21.5971 28.8181 21.6328 28.7672 21.6701 28.7171C24.3746 25.0174 22.8197 19.5818 18.5659 17.9213C17.9536 17.68 17.3437 17.596 16.8701 17.7892C16.5892 17.9191 16.3375 18.1034 16.1287 18.3308ZM15.97 18.149C16.1965 17.9074 16.4677 17.7109 16.7693 17.5714L16.7794 17.5667C17.3377 17.3389 18.0199 17.4482 18.6536 17.698C22.9904 19.3912 24.6116 24.8677 21.9856 28.687C26.5055 26.6155 30.631 21.3062 29.9326 14.439C29.2051 7.28248 23.3485 1.92067 16.1455 1.73668H15.7972C8.59424 1.92067 2.73766 7.28248 2.01011 14.439C1.31381 21.3062 5.43745 26.6155 9.95704 28.687C7.32668 24.8621 8.95244 19.3907 13.2896 17.6977C13.9247 17.4499 14.6045 17.3363 15.1642 17.5673C15.467 17.6929 15.7175 17.899 15.8875 18.0652C15.9172 18.0943 15.9446 18.1223 15.97 18.149Z" fill="url(#paint2_linear_2_1180)"/>
<path d="M21.6699 28.7171C24.3744 25.0173 22.8195 19.5818 18.5657 17.9213C23.639 20.5547 21.6272 25.6398 19.9875 27.8531L21.3275 29.2214C21.4683 29.0139 21.5616 28.8623 21.6699 28.7171Z" fill="url(#paint3_linear_2_1180)"/>
</g>
<defs>
<linearGradient id="paint0_linear_2_1180" x1="1.12063" y1="21.105" x2="26.5707" y2="3.21446" gradientUnits="userSpaceOnUse">
<stop stop-color="#8D757F"/>
<stop offset="0.03" stop-color="#CC9DAC"/>
<stop offset="0.145" stop-color="#CB9DAB"/>
<stop offset="0.19" stop-color="#CD7A7B"/>
<stop offset="0.34" stop-color="#FAB673"/>
<stop offset="0.58" stop-color="#D69983"/>
<stop offset="0.615" stop-color="#DCB997"/>
<stop offset="0.76" stop-color="#DDDFD7"/>
<stop offset="1" stop-color="#C3989F"/>
</linearGradient>
<radialGradient id="paint1_radial_2_1180" cx="0" cy="0" r="1" gradientUnits="userSpaceOnUse" gradientTransform="translate(13.0001 0.721503) rotate(83.2464) scale(28.6991 61.9848)">
<stop stop-color="#5B6BA6"/>
<stop offset="0.08" stop-color="#5BA3EF"/>
<stop offset="0.195" stop-color="#5979E0"/>
<stop offset="0.265" stop-color="#698FDF"/>
<stop offset="0.365" stop-color="#747EE0"/>
<stop offset="0.445" stop-color="#9E76E8"/>
<stop offset="0.515" stop-color="#9E77A8"/>
<stop offset="0.615" stop-color="#9A7BD5"/>
<stop offset="0.8" stop-color="#C57CCE"/>
<stop offset="0.91" stop-color="#CECBF9"/>
<stop offset="0.965" stop-color="#ECBEF3"/>
<stop offset="1" stop-color="#ECBDF3"/>
</radialGradient>
<linearGradient id="paint2_linear_2_1180" x1="4.00001" y1="5.97149" x2="23.5" y2="27.7217" gradientUnits="userSpaceOnUse">
<stop stop-color="#60BAFE"/>
<stop offset="0.14" stop-color="#E8F9FA"/>
<stop offset="0.285714" stop-color="#DDBDB5"/>
<stop offset="0.428571" stop-color="#EAEAF1"/>
<stop offset="0.571429" stop-color="#856E9A"/>
<stop offset="0.655" stop-color="#CDAAE8"/>
<stop offset="0.857143" stop-color="#95AFDE"/>
<stop offset="1" stop-color="#C88CDE"/>
</linearGradient>
<linearGradient id="paint3_linear_2_1180" x1="31.3208" y1="11.7111" x2="19.1121" y2="28.1487" gradientUnits="userSpaceOnUse">
<stop stop-color="#5B6BA6"/>
<stop offset="0.575" stop-color="#8C6D96"/>
<stop offset="0.91" stop-color="#9D5572"/>
<stop offset="0.955" stop-color="#BE6790"/>
<stop offset="1" stop-color="#9D5572"/>
</linearGradient>
</defs>
</svg>
